<svg xmlns="http://www.w3.org/2000/svg" viewBox="0 0 512 512" role="img" aria-labelledby="title desc">
  <title id="title">Simple Blog mark</title>
  <desc id="desc">A dark rounded square with a white S and a purple conversation line.</desc>
  <rect x="64" y="64" width="384" height="384" rx="112" fill="#171a23"/>
  <path d="M327 171c-21-15-47-23-78-23-54 0-91 26-91 65 0 36 27 54 83 65 35 7 49 14 49 29 0 16-17 27-46 27-28 0-53-9-75-27l-25 35c27 22 60 34 99 34 59 0 98-27 98-72 0-39-27-58-84-69-34-7-48-13-48-27 0-12 14-21 39-21 24 0 45 7 64 20z" fill="#fff"/>
  <path d="M150 371c34 31 74 45 122 45 33 0 61-7 84-20" fill="none" stroke="#7564ff" stroke-linecap="round" stroke-width="18"/>
</svg>
